HIERARCHY
ROOT Hips
{
	OFFSET 0 0 0
	CHANNELS 6 Xposition Yposition Zposition Yrotation Xrotation Zrotation
	JOINT Spine
	{
		OFFSET -0 8.0983 -2.58133
		CHANNELS 3 Yrotation Xrotation Zrotation
		JOINT Spine1
		{
			OFFSET -0 7.88588 0
			CHANNELS 3 Yrotation Xrotation Zrotation
			JOINT Spine2
			{
				OFFSET -0 7.88588 0
				CHANNELS 3 Yrotation Xrotation Zrotation
				JOINT Spine3
				{
					OFFSET -0 7.88588 0
					CHANNELS 3 Yrotation Xrotation Zrotation
					JOINT Neck
					{
						OFFSET -0 15.0463 3.58133
						CHANNELS 3 Yrotation Xrotation Zrotation
						JOINT Head
						{
							OFFSET -0 10.1229 0
							CHANNELS 3 Yrotation Xrotation Zrotation
							End Site
							{
								OFFSET 0 15 0
							}
						}
					}
					JOINT LeftShoulder
					{
						OFFSET 1.68715 7.22993 3.37429
						CHANNELS 3 Yrotation Xrotation Zrotation
						JOINT LeftArm
						{
							OFFSET 14.7943 0 0
							CHANNELS 3 Yrotation Xrotation Zrotation
							JOINT LeftForeArm
							{
								OFFSET 25.9782 0 0
								CHANNELS 3 Yrotation Xrotation Zrotation
								JOINT LeftHand
								{
									OFFSET 21.1435 0 0
									CHANNELS 3 Yrotation Xrotation Zrotation
									End Site
									{
										OFFSET 15 0 0
									}
								}
							}
						}
					}
					JOINT RightShoulder
					{
						OFFSET -1.68715 7.22993 3.37429
						CHANNELS 3 Yrotation Xrotation Zrotation
						JOINT RightArm
						{
							OFFSET -14.7943 0 0
							CHANNELS 3 Yrotation Xrotation Zrotation
							JOINT RightForeArm
							{
								OFFSET -25.9782 0 0
								CHANNELS 3 Yrotation Xrotation Zrotation
								JOINT RightHand
								{
									OFFSET -21.1435 0 0
									CHANNELS 3 Yrotation Xrotation Zrotation
									End Site
									{
										OFFSET -15 0 0
									}
								}
							}
						}
					}
				}
			}
		}
	}
	JOINT LeftUpLeg
	{
		OFFSET 10.1229 -3.37429 2
		CHANNELS 3 Yrotation Xrotation Zrotation
		JOINT LeftLeg
		{
			OFFSET -0 -35.8499 2.362
			CHANNELS 3 Yrotation Xrotation Zrotation
			JOINT LeftFoot
			{
				OFFSET -0 -42.3872 -2.362
				CHANNELS 3 Yrotation Xrotation Zrotation
				JOINT LeftToeBase
				{
					OFFSET -0 -6.51407 15.1843
					CHANNELS 3 Yrotation Xrotation Zrotation
					End Site
					{
						OFFSET 0 0 5
					}
				}
			}
		}
	}
	JOINT RightUpLeg
	{
		OFFSET -10.1229 -3.37429 2
		CHANNELS 3 Yrotation Xrotation Zrotation
		JOINT RightLeg
		{
			OFFSET -0 -35.8499 2.362
			CHANNELS 3 Yrotation Xrotation Zrotation
			JOINT RightFoot
			{
				OFFSET -0 -42.3872 -2.362
				CHANNELS 3 Yrotation Xrotation Zrotation
				JOINT RightToeBase
				{
					OFFSET -0 -6.51407 15.1843
					CHANNELS 3 Yrotation Xrotation Zrotation
					End Site
					{
						OFFSET 0 0 5
					}
				}
			}
		}
	}
}
MOTION
Frames: 13
Frame Time: 0.00833333
0 90.775345 0 0 0 0 0 0 0 0 0 0 0 0 0 0 0 0 0 0 0 0 0 0 0 0 0 0 0 0 0 0 0 0 0 0 0 0 0 0 0 0 0 0 0 0 0 0 0 0 0 0 0 0 0 0 0 0 0 0 0 0 0 0 0 0 0 0 0 0 0 0
-116.889661 90.830011 421.608936 -179.853256 -1.073066 0.022289 -0.328744 1.708776 -0.267802 -0.280654 1.714433 -0.125082 0.033601 1.627252 0.009655 0.132650 1.615396 0.047700 2.366892 -5.438368 3.392742 1.383814 -11.993303 0.472955 3.888856 7.091509 -2.645372 -29.417375 -0.418597 -52.130313 -17.512780 -0.437275 9.891951 27.628800 -16.349494 -1.066479 -4.833195 7.730706 7.008213 28.798126 4.575127 38.825879 9.716175 -5.238601 -7.284534 -10.864364 -5.848718 6.000217 -1.244613 2.012195 0.889150 0.000000 3.014738 0.000000 -5.514960 -0.889209 5.065391 0.000000 -6.008292 0.000000 2.774205 2.967365 -0.494663 0.000000 1.511266 0.000000 2.819260 -0.492459 -2.004756 0.000000 -4.817322 0.000000
-116.888037 90.832349 421.615820 -179.879239 -1.084349 0.013586 -0.316354 1.741129 -0.246012 -0.266856 1.720615 -0.125177 0.037494 1.624091 0.001320 0.137836 1.594411 0.031566 2.371792 -5.435406 3.372893 1.376259 -11.988660 0.519367 3.891264 7.091162 -2.643943 -29.424033 -0.412769 -52.122967 -17.537164 -0.428902 9.887854 27.656941 -16.310240 -1.142981 -4.838793 7.728426 7.008156 28.788570 4.550808 38.814856 9.733602 -5.281288 -7.262914 -10.841431 -5.781080 5.973540 -1.249309 2.028998 0.898989 0.000000 3.006415 0.000000 -5.491672 -0.895650 5.069668 0.000000 -6.006589 0.000000 2.847887 2.966233 -0.480786 0.000000 1.516160 0.000000 2.773587 -0.469030 -1.999424 0.000000 -4.785101 0.000000
-116.886719 90.829303 421.604492 -179.824668 -1.067151 0.015847 -0.336373 1.681796 -0.269602 -0.287865 1.743777 -0.119873 0.029162 1.630260 0.006039 0.129260 1.615181 0.040820 2.378804 -5.425670 3.404971 1.393668 -12.010306 0.454698 3.907035 7.063275 -2.634222 -29.421040 -0.422372 -52.157114 -17.514021 -0.392484 9.854813 27.625037 -16.276592 -1.040170 -4.839156 7.730841 6.988568 28.792627 4.516260 38.798455 9.741861 -5.309912 -7.230655 -10.824131 -5.674453 5.909490 -1.237142 2.012469 0.897482 0.000000 3.000996 0.000000 -5.555263 -0.878471 5.113850 0.000000 -6.088240 0.000000 2.734996 2.975391 -0.488057 0.000000 1.497324 0.000000 2.829585 -0.491683 -2.045642 0.000000 -4.780412 0.000000
-116.884131 90.832898 421.614355 -179.839345 -1.071994 0.010611 -0.335123 1.741811 -0.250663 -0.284572 1.710063 -0.123771 0.038871 1.627896 -0.012222 0.137524 1.594043 0.037097 2.379964 -5.432167 3.402090 1.390953 -11.973793 0.467222 3.902132 7.081989 -2.637848 -29.418750 -0.423020 -52.144852 -17.541435 -0.383919 9.872651 27.668640 -16.327964 -1.150587 -4.834774 7.709240 6.979724 28.762899 4.470834 38.815723 9.717072 -5.328209 -7.206860 -10.790175 -5.611525 5.814357 -1.245096 2.018220 0.904678 0.000000 2.986976 0.000000 -5.539855 -0.852039 5.089552 0.000000 -6.073592 0.000000 2.748005 2.967179 -0.480974 0.000000 1.505475 0.000000 2.843835 -0.475466 -2.003088 0.000000 -4.726654 0.000000
-116.883533 90.831451 421.615576 -179.836912 -1.071973 0.009923 -0.333818 1.744597 -0.247656 -0.283184 1.712036 -0.123348 0.037443 1.627489 -0.014259 0.136471 1.591089 0.031995 2.394404 -5.426686 3.373104 1.387727 -11.966715 0.504426 3.910821 7.070168 -2.637382 -29.415772 -0.430052 -52.151178 -17.544260 -0.350269 9.849647 27.681992 -16.371347 -1.147896 -4.832435 7.712385 6.962649 28.761611 4.457888 38.815763 9.742887 -5.341351 -7.200500 -10.806289 -5.565267 5.854727 -1.240841 2.019074 0.903786 0.000000 2.987257 0.000000 -5.548200 -0.866835 5.102660 0.000000 -6.050929 0.000000 2.740552 2.965815 -0.480919 0.000000 1.502210 0.000000 2.839224 -0.469970 -2.003758 0.000000 -4.805486 0.000000
-116.879736 90.832220 421.615430 -179.820146 -1.068732 0.011481 -0.356025 1.740790 -0.246858 -0.304927 1.732915 -0.131958 0.063633 1.608267 -0.030054 0.160841 1.584904 0.033823 2.380436 -5.404089 3.417512 1.395455 -11.978293 0.450674 3.911836 7.081534 -2.610912 -29.463846 -0.434522 -52.164098 -17.546132 -0.417796 9.867219 27.717911 -16.364680 -1.180849 -4.838948 7.746704 6.972040 28.744771 4.408784 38.793367 9.739159 -5.302370 -7.208694 -10.854451 -5.584441 5.915307 -1.260464 2.021109 0.907524 0.000000 2.967165 0.000000 -5.534084 -0.845027 5.065872 0.000000 -6.094516 0.000000 2.742700 2.967378 -0.478686 0.000000 1.499835 0.000000 2.826675 -0.473891 -2.009518 0.000000 -4.766283 0.000000
-116.879248 90.833057 421.612061 -179.821002 -1.066507 0.022854 -0.339860 1.740998 -0.265739 -0.288168 1.715670 -0.135006 0.051038 1.621731 -0.014629 0.151124 1.587965 0.029840 2.405010 -5.390289 3.392223 1.398521 -11.993828 0.482203 3.906331 7.080377 -2.620748 -29.472561 -0.442186 -52.165299 -17.519939 -0.364645 9.853297 27.705137 -16.451910 -1.089218 -4.841014 7.725251 6.949468 28.745246 4.386493 38.819376 9.703654 -5.292352 -7.241973 -10.935970 -5.494886 5.968242 -1.228985 2.016367 0.894867 0.000000 2.978055 0.000000 -5.566549 -0.852144 5.089043 0.000000 -6.091788 0.000000 2.740980 2.977515 -0.490746 0.000000 1.483836 0.000000 2.831401 -0.479387 -2.015335 0.000000 -4.765485 0.000000
-116.879724 90.835492 421.612842 -179.807339 -1.068390 0.025987 -0.356657 1.735509 -0.249309 -0.304304 1.739701 -0.141128 0.065041 1.611342 -0.040422 0.163963 1.586666 0.019912 2.434423 -5.389941 3.379013 1.403320 -11.980712 0.521852 3.900303 7.060329 -2.612588 -29.452520 -0.438122 -52.166701 -17.538142 -0.384678 9.846100 27.720594 -16.466535 -1.080226 -4.833561 7.717396 6.969493 28.777485 4.444709 38.814080 9.713560 -5.400326 -7.274741 -10.931297 -5.433230 5.993370 -1.214231 2.011932 0.891181 0.000000 2.986756 0.000000 -5.599855 -0.866985 5.105672 0.000000 -6.014435 0.000000 2.796619 2.976061 -0.488083 0.000000 1.490861 0.000000 2.753239 -0.468723 -2.014280 0.000000 -4.788426 0.000000
-116.878748 90.835431 421.612158 -179.790993 -1.067895 0.028799 -0.357606 1.739009 -0.268531 -0.304478 1.732095 -0.136117 0.062778 1.629157 -0.014240 0.164706 1.575592 0.023081 2.437050 -5.392551 3.344188 1.398340 -11.969770 0.531675 3.895008 7.058460 -2.630801 -29.451070 -0.445550 -52.172356 -17.553729 -0.402057 9.862881 27.768402 -16.442169 -1.145995 -4.847698 7.694006 6.927489 28.745660 4.419656 38.828879 9.738252 -5.304670 -7.268258 -10.952103 -5.542102 6.047595 -1.220291 2.007026 0.890914 0.000000 2.989735 0.000000 -5.603866 -0.856338 5.067907 0.000000 -6.019268 0.000000 2.747745 2.985426 -0.495520 0.000000 1.477142 0.000000 2.788067 -0.461599 -2.004702 0.000000 -4.783905 0.000000
-116.874731 90.834766 421.614404 -179.792381 -1.065821 0.026186 -0.362259 1.750403 -0.260311 -0.307984 1.728302 -0.140991 0.062693 1.621555 -0.030477 0.163562 1.589343 0.022200 2.448013 -5.413292 3.352899 1.405155 -11.952149 0.523486 3.922792 7.041812 -2.606353 -29.445142 -0.467592 -52.190467 -17.551282 -0.392674 9.861571 27.727623 -16.482111 -1.133134 -4.828197 7.694639 6.922118 28.778308 4.418938 38.821801 9.731181 -5.361887 -7.256014 -11.058456 -5.437060 5.937367 -1.254151 2.016102 0.894979 0.000000 2.971286 0.000000 -5.565930 -0.855419 5.070183 0.000000 -6.021846 0.000000 2.740106 2.982363 -0.488379 0.000000 1.477508 0.000000 2.792235 -0.463522 -2.046461 0.000000 -4.757466 0.000000
-116.873267 90.836292 421.614258 -179.793943 -1.062173 0.016129 -0.361611 1.752357 -0.247303 -0.306470 1.729308 -0.134517 0.078990 1.622106 -0.031440 0.182603 1.578196 0.002071 2.442762 -5.417352 3.354420 1.401160 -11.928308 0.532023 3.902625 7.042342 -2.603813 -29.469162 -0.466907 -52.189044 -17.546364 -0.402234 9.871119 27.755921 -16.459209 -1.124202 -4.830763 7.671362 6.926209 28.736418 4.452059 38.830742 9.743720 -5.322436 -7.261447 -11.025139 -5.418297 5.972138 -1.225296 2.020614 0.908725 0.000000 2.953401 0.000000 -5.594219 -0.832962 5.043215 0.000000 -6.085668 0.000000 2.727377 2.978164 -0.478338 0.000000 1.476451 0.000000 2.816242 -0.457656 -2.013870 0.000000 -4.793100 0.000000
-116.871924 90.834601 421.608936 -179.772248 -1.059649 0.018142 -0.367497 1.735336 -0.248630 -0.312068 1.733757 -0.134200 0.070553 1.622308 -0.030341 0.174443 1.592724 0.003591 2.456994 -5.421232 3.321787 1.399775 -11.913633 0.552877 3.906120 7.040635 -2.616421 -29.452763 -0.458840 -52.184988 -17.568190 -0.335548 9.866295 27.781138 -16.502311 -1.110632 -4.822586 7.674140 6.894206 28.728100 4.405564 38.835443 9.747787 -5.257771 -7.242711 -10.990999 -5.379861 5.913240 -1.245093 2.019821 0.908831 0.000000 2.957313 0.000000 -5.606839 -0.853988 5.061300 0.000000 -6.008829 0.000000 2.701785 2.982216 -0.481349 0.000000 1.476454 0.000000 2.814306 -0.465437 -2.027186 0.000000 -4.785634 0.000000
